<svg width="37" height="37" viewBox="0 0 37 37" fill="none" xmlns="http://www.w3.org/2000/svg">
<rect x="0.395237" y="0.644138" width="35.5933" height="35.5933" rx="17.7966" fill="white" fill-opacity="0.05" stroke="url(#paint0_linear_2_1991)" stroke-width="0.790962"/>
<path d="M18.3671 15.9691C17.0064 15.9691 15.896 17.0796 15.896 18.4403C15.896 19.801 17.0064 20.9114 18.3671 20.9114C19.7278 20.9114 20.8383 19.801 20.8383 18.4403C20.8383 17.0796 19.7278 15.9691 18.3671 15.9691ZM25.7787 18.4403C25.7787 17.417 25.788 16.4029 25.7305 15.3815C25.673 14.195 25.4024 13.1421 24.5348 12.2745C23.6654 11.4051 22.6142 11.1362 21.4278 11.0788C20.4045 11.0213 19.3904 11.0306 18.369 11.0306C17.3457 11.0306 16.3317 11.0213 15.3102 11.0788C14.1238 11.1362 13.0708 11.4069 12.2032 12.2745C11.3338 13.1439 11.065 14.195 11.0075 15.3815C10.95 16.4048 10.9593 17.4188 10.9593 18.4403C10.9593 19.4617 10.95 20.4776 11.0075 21.4991C11.065 22.6855 11.3356 23.7385 12.2032 24.6061C13.0726 25.4755 14.1238 25.7443 15.3102 25.8018C16.3335 25.8593 17.3475 25.85 18.369 25.85C19.3923 25.85 20.4063 25.8593 21.4278 25.8018C22.6142 25.7443 23.6672 25.4737 24.5348 24.6061C25.4042 23.7366 25.673 22.6855 25.7305 21.4991C25.7898 20.4776 25.7787 19.4636 25.7787 18.4403ZM18.3671 22.2425C16.2631 22.2425 14.565 20.5444 14.565 18.4403C14.565 16.3362 16.2631 14.6381 18.3671 14.6381C20.4712 14.6381 22.1693 16.3362 22.1693 18.4403C22.1693 20.5444 20.4712 22.2425 18.3671 22.2425ZM22.325 15.3704C21.8338 15.3704 21.4371 14.9736 21.4371 14.4824C21.4371 13.9911 21.8338 13.5944 22.325 13.5944C22.8163 13.5944 23.213 13.9911 23.213 14.4824C23.2132 14.599 23.1903 14.7146 23.1457 14.8224C23.1012 14.9302 23.0357 15.0281 22.9533 15.1106C22.8708 15.1931 22.7728 15.2585 22.665 15.3031C22.5572 15.3476 22.4417 15.3705 22.325 15.3704Z" fill="url(#paint1_linear_2_1991)"/>
<defs>
<linearGradient id="paint0_linear_2_1991" x1="-0.000244235" y1="1.31878" x2="17.0033" y2="26.94" gradientUnits="userSpaceOnUse">
<stop stop-color="#FF2801"/>
<stop offset="1" stop-color="#FF6B0A"/>
</linearGradient>
<linearGradient id="paint1_linear_2_1991" x1="10.9587" y1="11.4659" x2="17.8848" y2="21.9024" gradientUnits="userSpaceOnUse">
<stop stop-color="#FF2801"/>
<stop offset="1" stop-color="#FF6B0A"/>
</linearGradient>
</defs>
</svg>
