<svg width="37" height="38" viewBox="0 0 37 38" fill="none" xmlns="http://www.w3.org/2000/svg">
<rect x="0.395481" y="1.14145" width="35.5933" height="35.5933" rx="17.7966" fill="white" fill-opacity="0.05" stroke="url(#paint0_linear_2_2003)" stroke-width="0.790962"/>
<path d="M12.4633 14.282C13.3696 14.282 14.1043 13.5473 14.1043 12.641C14.1043 11.7347 13.3696 11 12.4633 11C11.557 11 10.8223 11.7347 10.8223 12.641C10.8223 13.5473 11.557 14.282 12.4633 14.282Z" fill="url(#paint1_linear_2_2003)"/>
<path d="M14.1046 16.7436H10.8225V27H14.1046V16.7436Z" fill="url(#paint2_linear_2_2003)"/>
<path d="M17.386 20.641V27H20.2578V21.2564C20.2578 20.2308 20.8732 19.4103 21.8988 19.4103C22.9244 19.4103 23.5398 20.4359 23.5398 21.2564V27H26.4116V20.641C26.4116 19.4103 24.9757 16.7436 21.8988 16.7436C18.8219 16.7436 17.386 19.4103 17.386 20.641Z" fill="url(#paint3_linear_2_2003)"/>
<defs>
<linearGradient id="paint0_linear_2_2003" x1="-9.46355e-08" y1="1.8161" x2="17.0035" y2="27.4373" gradientUnits="userSpaceOnUse">
<stop stop-color="#FF2801"/>
<stop offset="1" stop-color="#FF6B0A"/>
</linearGradient>
<linearGradient id="paint1_linear_2_2003" x1="10.8223" y1="11.0965" x2="12.3561" y2="13.4077" gradientUnits="userSpaceOnUse">
<stop stop-color="#FF2801"/>
<stop offset="1" stop-color="#FF6B0A"/>
</linearGradient>
<linearGradient id="paint2_linear_2_2003" x1="10.8225" y1="17.0452" x2="14.8925" y2="19.0077" gradientUnits="userSpaceOnUse">
<stop stop-color="#FF2801"/>
<stop offset="1" stop-color="#FF6B0A"/>
</linearGradient>
<linearGradient id="paint3_linear_2_2003" x1="17.386" y1="17.0452" x2="22.3872" y2="23.6769" gradientUnits="userSpaceOnUse">
<stop stop-color="#FF2801"/>
<stop offset="1" stop-color="#FF6B0A"/>
</linearGradient>
</defs>
</svg>
