<svg width="37" height="37" viewBox="0 0 37 37" fill="none" xmlns="http://www.w3.org/2000/svg">
<rect x="0.395481" y="0.395481" width="35.5933" height="35.5933" rx="17.7966" fill="white" fill-opacity="0.05" stroke="url(#paint0_linear_2_1985)" stroke-width="0.790962"/>
<g clip-path="url(#clip0_2_1985)">
<path d="M27.5829 12.606C26.9224 12.8986 26.2129 13.0964 25.467 13.1857C26.2367 12.7252 26.8124 12.0005 27.0869 11.1466C26.3639 11.5761 25.5725 11.8784 24.7473 12.0404C24.1923 11.4479 23.4573 11.0552 22.6562 10.9232C21.8552 10.7912 21.033 10.9274 20.3173 11.3106C19.6016 11.6938 19.0324 12.3025 18.6981 13.0423C18.3638 13.7822 18.2832 14.6117 18.4686 15.402C17.0035 15.3285 15.5702 14.9477 14.2618 14.2843C12.9534 13.621 11.7991 12.6899 10.8738 11.5516C10.5574 12.0974 10.3755 12.7302 10.3755 13.4041C10.3751 14.0107 10.5245 14.6081 10.8104 15.1432C11.0963 15.6782 11.5099 16.1345 12.0144 16.4714C11.4293 16.4528 10.8571 16.2947 10.3454 16.0103V16.0577C10.3454 16.9086 10.6397 17.7333 11.1785 18.3919C11.7172 19.0504 12.4673 19.5023 13.3013 19.6708C12.7585 19.8177 12.1894 19.8394 11.6371 19.7341C11.8724 20.4662 12.3307 21.1065 12.948 21.5651C13.5652 22.0238 14.3105 22.278 15.0793 22.2921C13.7741 23.3167 12.1622 23.8725 10.5028 23.8701C10.2089 23.8701 9.91522 23.853 9.62329 23.8186C11.3076 24.9016 13.2683 25.4764 15.2708 25.4741C22.0493 25.4741 25.755 19.8599 25.755 14.9907C25.755 14.8325 25.751 14.6728 25.7439 14.5146C26.4647 13.9933 27.0869 13.3478 27.5813 12.6083L27.5829 12.606Z" fill="url(#paint1_linear_2_1985)"/>
</g>
<defs>
<linearGradient id="paint0_linear_2_1985" x1="-9.46355e-08" y1="1.07012" x2="17.0035" y2="26.6913" gradientUnits="userSpaceOnUse">
<stop stop-color="#FF2801"/>
<stop offset="1" stop-color="#FF6B0A"/>
</linearGradient>
<linearGradient id="paint1_linear_2_1985" x1="9.62329" y1="11.3036" x2="15.8117" y2="22.7741" gradientUnits="userSpaceOnUse">
<stop stop-color="#FF2801"/>
<stop offset="1" stop-color="#FF6B0A"/>
</linearGradient>
<clipPath id="clip0_2_1985">
<rect width="18.9831" height="18.9831" fill="white" transform="translate(8.70142 8.70056)"/>
</clipPath>
</defs>
</svg>
